<svg xmlns="http://www.w3.org/2000/svg" width="1600" height="900" viewBox="0 0 1600 900" role="img" aria-labelledby="title desc">
<title id="title">Generated interface verification</title><desc id="desc">Abstract interactive panels pass through accuracy, provenance, and approval checkpoints.</desc>
<defs><linearGradient id="bg" x1="0" y1="0" x2="1" y2="1"><stop stop-color="#081426"/><stop offset=".55" stop-color="#172554"/><stop offset="1" stop-color="#155e75"/></linearGradient><linearGradient id="panel" x1="0" y1="0" x2="1" y2="1"><stop stop-color="#1e3a5f"/><stop offset="1" stop-color="#0f2942"/></linearGradient><filter id="glow"><feGaussianBlur stdDeviation="10" result="b"/><feMerge><feMergeNode in="b"/><feMergeNode in="SourceGraphic"/></feMerge></filter></defs>
<rect width="1600" height="900" fill="url(#bg)"/><g opacity=".12" stroke="#bae6fd" stroke-width="2"><path d="M0 150h1600M0 300h1600M0 450h1600M0 600h1600M0 750h1600"/><path d="M200 0v900M400 0v900M600 0v900M800 0v900M1000 0v900M1200 0v900M1400 0v900"/></g>
<g fill="url(#panel)" stroke="#7dd3fc" stroke-width="5"><rect x="160" y="190" width="410" height="520" rx="44"/><rect x="650" y="245" width="300" height="410" rx="44"/><rect x="1030" y="190" width="410" height="520" rx="44"/></g>
<g fill="none" stroke="#e0f2fe" stroke-width="12" stroke-linecap="round"><path d="M235 290h260M235 360h150"/><rect x="235" y="440" width="260" height="150" rx="24"/><path d="M700 365h200M700 435h130M700 505h170"/><circle cx="1235" cy="405" r="105"/><path d="M1175 410l45 45 82-100"/></g>
<path d="M570 450h80M950 450h80" stroke="#34d399" stroke-width="16" stroke-linecap="round" filter="url(#glow)"/><g fill="#34d399"><circle cx="610" cy="450" r="20"/><circle cx="990" cy="450" r="20"/></g><g fill="#38bdf8"><circle cx="365" cy="515" r="22"/><circle cx="800" cy="575" r="22"/><circle cx="1235" cy="610" r="22"/></g>
</svg>